<svg xmlns="http://www.w3.org/2000/svg" version="1.1" xmlns:xlink="http://www.w3.org/1999/xlink" width="1471.35" height="1134.57"><svg id="SvgjsSvg1112" data-name="Layer 1" xmlns="http://www.w3.org/2000/svg" viewBox="0 0 1471.35 1134.57">
  <defs>
    <style>
      .cls-1 {
        fill: #d93d04;
      }
    </style>
  </defs>
  <path class="cls-1" d="M980.9,432.28V68.94C969.41,30.16,937.81,0,899.04,0H70.37C31.59,0,0,30.16,0,67.5v999.57c0,37.34,31.59,67.5,70.37,67.5h305.9c38.78,0,80.42-30.16,80.42-67.5l1.44-364.79h0c-56.31,0-101.97-45.65-101.97-101.97v-171.08l624.73,3.05ZM352.32,331.11l-48.85,35.89c-9.4,6.91-22.69,4.36-28.88-5.53l-23.08-36.92c-7.75-12.4-25.74-12.6-33.77-.37l-24.79,37.78c-6.35,9.67-19.54,11.98-28.79,5.04l-47.87-35.9c-9.17-6.88-10.72-20.02-3.4-28.84l28.75-34.65c9.34-11.26,3.86-28.42-10.28-32.18l-42.3-11.25c-11.05-2.94-17.41-14.51-13.97-25.42l17.76-56.25c3.54-11.22,15.94-16.99,26.81-12.48l40.42,16.78c13.7,5.69,28.62-4.95,27.7-19.76l-2.66-42.91c-.72-11.54,8.45-21.29,20.01-21.29h58.74c11.56,0,20.72,9.74,20.01,21.28l-2.73,44.47c-.9,14.63,13.69,25.25,27.34,19.89l41.97-16.48c10.79-4.23,22.91,1.53,26.43,12.58l17.72,55.61c3.5,11-2.98,22.67-14.16,25.52l-42.18,10.74c-14.32,3.64-19.91,21-10.41,32.32l27.94,33.3c7.45,8.87,5.85,22.19-3.49,29.05Z"></path>
  <path class="cls-1" d="M1400.97,0h-305.9c-38.78,0-80.43,30.16-80.43,67.5l-1.44,364.79s0,0,0,0h0c56.31,0,101.97,45.65,101.97,101.97v168.97l-624.73-.95v363.35c11.49,38.78,43.08,68.94,81.86,68.94h828.67c38.78,0,70.37-30.16,70.37-67.5V67.5c0-37.34-31.59-67.5-70.37-67.5ZM1304.14,1037.07l-1.13.25c-60.58,11.03-125.89,7.06-193.53,8.28-66.71-1.28-130.69,2.74-190.2-8.76-91.44-16.33-112.17-143.55-57.96-205.69,23.46-28.47,59.19-35.53,95.19-38.54,78.56-4.92,158.66-2.99,237.49-2.77,53.95,2.85,116.58-4.5,159.93,32.28,65.23,58.89,46.76,198.09-49.79,214.94Z"></path>
</svg><style>@media (prefers-color-scheme: light) { :root { filter: none; } }
@media (prefers-color-scheme: dark) { :root { filter: none; } }
</style></svg>